<?xml version="1.0" encoding="utf-8"?>
<!-- Generator: Adobe Illustrator 16.0.0, SVG Export Plug-In . SVG Version: 6.00 Build 0)  -->
<!DOCTYPE svg PUBLIC "-//W3C//DTD SVG 1.1//EN" "http://www.w3.org/Graphics/SVG/1.1/DTD/svg11.dtd">
<svg version="1.1" id="Capa_1" xmlns="http://www.w3.org/2000/svg" xmlns:xlink="http://www.w3.org/1999/xlink" x="0px" y="0px"
	 width="340.16px" height="340.16px" viewBox="0 0 340.16 340.16" enable-background="new 0 0 340.16 340.16" xml:space="preserve">
<g>
	<path fill="#252525" d="M148.915,135.602h3.385c0.94,0,1.881,0.376,2.256,1.317l53.018,130.477c0.563,1.316,0,2.257-1.319,2.257
		h-3.008c-0.938,0-1.878-0.376-2.254-1.316l-13.537-32.903c-0.376-0.94-1.129-1.315-2.068-1.315h-69.561
		c-0.939,0-1.88,0.375-2.256,1.315l-13.536,32.903c-0.379,0.94-1.129,1.316-2.069,1.316h-3.196c-1.317,0-1.881-0.94-1.317-2.257
		l53.207-130.477C147.034,135.979,147.974,135.602,148.915,135.602z M119.022,227.538h63.168c1.315,0,1.884-0.939,1.315-2.254
		L151.924,148.2c-0.566-1.317-2.069-1.317-2.633,0l-31.585,77.084C117.143,226.599,117.705,227.538,119.022,227.538z"/>
	<path fill="#252525" d="M299.9,216.373l31.96,4.139c1.692,0.187,1.506,1.881,1.315,2.819c-4.136,27.262-29.14,46.062-58.846,46.062
		c-38.355,0-66.18-30.455-66.18-67.87c0-37.414,27.824-67.306,66.18-67.306c29.706,0,54.335,18.799,58.846,46.059
		c0.19,0.943,0.19,2.633-1.315,2.821l-31.96,4.137c-0.754,0.188-2.071,0-2.633-1.316c-3.008-7.709-8.273-18.048-24.63-18.048
		c-11.091,0-26.321,8.272-26.321,33.654c0,25.568,15.23,34.216,26.321,34.216c16.356,0,21.622-10.34,24.63-18.046
		C297.829,216.373,298.959,216.189,299.9,216.373z"/>
	<g>
		<path fill="#252525" d="M50.769,114.572c0,0-39.91,0-41.82,0c-1.452,0-1.967-0.688-1.967-1.976c0-0.421,0-2.137,0-2.498
			c0-1.191,0.414-1.974,1.967-1.973c1.75,0.003,41.82,0,41.82,0c16.629,0,24.044-7.86,24.044-25.487c0,0,0.013-39.377,0.013-40.131
			c0-1.175,0.654-2.003,1.935-2.003c0.567,0,1.771-0.006,2.529-0.006c1.234,0,1.968,0.872,1.968,1.97c0,1.097,0,40.171,0,40.171
			C81.259,103.829,71,114.572,50.769,114.572z"/>
	</g>
	<g>
		<path fill="#252525" d="M120.464,114.573c0,0,39.911,0,41.818,0c1.454,0,1.967-0.689,1.967-1.976c0-0.42,0-2.138,0-2.497
			c0-1.191-0.412-1.975-1.967-1.972c-1.749,0.001-41.818,0-41.818,0c-16.63,0-24.045-7.862-24.045-25.489
			c0,0-0.013-39.377-0.013-40.131c0-1.175-0.654-2.003-1.935-2.003c-0.565,0-1.771-0.006-2.53-0.006
			c-1.233,0-1.967,0.872-1.967,1.97c0,1.097,0,40.171,0,40.171C89.974,103.829,100.231,114.573,120.464,114.573z"/>
	</g>
	<g>
		<path fill="#252525" d="M50.769,122.841c0,0-39.91,0-41.82,0c-1.452,0-1.967,0.689-1.967,1.977c0,0.42,0,2.136,0,2.496
			c0,1.192,0.414,1.974,1.967,1.973c1.75-0.002,41.82,0,41.82,0c16.629,0,24.044,7.861,24.044,25.486c0,0,0.013,39.377,0.013,40.131
			c0,1.174,0.654,2.003,1.935,2.003c0.567,0,1.771,0.008,2.529,0.008c1.234,0,1.968-0.874,1.968-1.971c0-1.098,0-40.171,0-40.171
			C81.259,133.584,71,122.841,50.769,122.841z"/>
	</g>
</g>
</svg>
