<?xml version="1.0" encoding="utf-8"?>
<!-- Generator: Adobe Illustrator 16.0.0, SVG Export Plug-In . SVG Version: 6.00 Build 0)  -->
<!DOCTYPE svg PUBLIC "-//W3C//DTD SVG 1.1//EN" "http://www.w3.org/Graphics/SVG/1.1/DTD/svg11.dtd">
<svg version="1.1" id="Capa_1" xmlns="http://www.w3.org/2000/svg" xmlns:xlink="http://www.w3.org/1999/xlink" x="0px" y="0px"
	 width="195.813px" height="193.922px" viewBox="0 0 195.813 193.922" enable-background="new 0 0 195.813 193.922"
	 xml:space="preserve">
<g>
	<g>
		
			<rect x="-19.693" y="100.022" transform="matrix(0.7048 0.7094 -0.7094 0.7048 104.2111 -44.4073)" fill="#CF6F2C" width="250.322" height="6"/>
	</g>
	<g>
		<path fill="#CF6F2C" d="M6,161.421l-6-0.02L0.345,53.574C0.46,17.528,17.396,0,52.115,0c0.111,0,0.22,0,0.331,0l110.542,0.354
			l-0.02,6L52.426,6c-0.108,0-0.218,0-0.326,0C20.565,6,6.45,20.69,6.345,53.594L6,161.421z"/>
	</g>
	<g>
		<path fill="#CF6F2C" d="M0.39,60.311C0.355,40.354,4.52,28.924,13.123,25.368c12.38-5.117,28.628,9.334,35.039,15.785
			l-4.256,4.229c-8.937-8.995-21.116-17.522-28.491-14.47C9.481,33.366,6.361,43.528,6.39,60.3L0.39,60.311z"/>
	</g>
	<g>
		<path fill="#CF6F2C" d="M44.201,45.679c-9.436-9.497-19.762-23.006-15.372-33.436C32.334,3.914,43.9-0.05,64.165,0.109l-0.049,6
			c-21.598-0.199-28.092,4.504-29.757,8.462c-2.385,5.665,2.754,15.462,14.098,26.878L44.201,45.679z"/>
	</g>
</g>
</svg>
