<?xml version="1.0" encoding="utf-8"?>
<!-- Generator: Adobe Illustrator 16.0.0, SVG Export Plug-In . SVG Version: 6.00 Build 0)  -->
<!DOCTYPE svg PUBLIC "-//W3C//DTD SVG 1.1//EN" "http://www.w3.org/Graphics/SVG/1.1/DTD/svg11.dtd">
<svg version="1.1" id="Capa_1" xmlns="http://www.w3.org/2000/svg" xmlns:xlink="http://www.w3.org/1999/xlink" x="0px" y="0px"
	 width="544.972px" height="408.45px" viewBox="0 0 544.972 408.45" enable-background="new 0 0 544.972 408.45"
	 xml:space="preserve">
<g>
	<path fill="#252525" d="M132.114,88.525h3.15c0.875,0,1.75,0.35,2.1,1.225l49.352,121.452c0.524,1.226,0,2.101-1.226,2.101h-2.801
		c-0.874,0-1.75-0.351-2.1-1.226l-12.6-30.625c-0.35-0.875-1.051-1.225-1.925-1.225h-64.751c-0.875,0-1.75,0.35-2.101,1.225
		l-12.6,30.625c-0.351,0.875-1.05,1.226-1.925,1.226h-2.976c-1.226,0-1.75-0.875-1.226-2.101L130.015,89.75
		C130.364,88.875,131.238,88.525,132.114,88.525z M104.289,174.102h58.801c1.226,0,1.75-0.875,1.226-2.1l-29.4-71.751
		c-0.526-1.225-1.926-1.225-2.45,0l-29.4,71.751C102.539,173.227,103.064,174.102,104.289,174.102z"/>
	<path fill="#252525" d="M257.765,126.851l-0.35,2.275c-0.175,1.05-1.05,1.05-1.75,0.7c-3.5-1.925-8.051-4.025-16.626-4.025
		c-14.524,0-29.4,9.8-29.4,28.525v57.576c0,0.875-0.524,1.4-1.4,1.4h-2.449c-0.875,0-1.4-0.525-1.4-1.4v-89.427
		c0-0.875,0.525-1.4,1.4-1.4h2.449c0.876,0,1.4,0.525,1.4,1.4v10.325c0,1.225,0.875,1.575,1.75,0.525
		c8.575-10.325,20.301-12.775,27.65-12.775c7.699,0,14.876,2.45,17.85,4.375C257.765,125.451,257.939,126.151,257.765,126.851z"/>
	<path fill="#252525" d="M332.84,160.977v50.926c0,0.875-0.523,1.4-1.398,1.4h-2.451c-0.874,0-1.4-0.525-1.4-1.4v-9.1
		c0-1.225-0.874-1.4-1.574-0.7c-6.826,6.65-22.926,11.725-33.775,11.725c-21.352,0-30.101-12.775-30.101-25.9
		c0-23.45,24.15-33.601,64.052-33.601c1.049,0,1.398-0.525,1.398-1.575c0-22.925-11.9-26.95-25.199-26.95
		c-10.5,0-24.325,5.425-29.575,8.575c-0.876,0.525-1.226,0.175-1.75-0.7l-1.226-2.1c-0.524-0.875-0.175-1.05,0.525-1.575
		c4.899-3.325,19.775-9.45,33.25-9.45C333.191,120.551,332.84,144.001,332.84,160.977z M327.066,194.927
		c0.699-0.7,0.523-1.05,0.523-1.575v-32.375c0-0.875-0.523-1.4-1.398-1.4c-23.626,0-58.803,3.85-58.803,28.351
		c0,13.125,9.977,20.65,24.852,20.65C299.766,208.577,314.116,205.952,327.066,194.927z"/>
	<path fill="#252525" d="M356.112,198.777c-0.699-1.05-1.4-0.7-1.4,0.35v12.775c0,0.875-0.522,1.4-1.397,1.4h-2.452
		c-0.874,0-1.4-0.525-1.4-1.4V82.75c0-0.7,0.526-1.225,1.228-1.225h2.799c0.701,0,1.224,0.525,1.224,1.225v52.501
		c0,1.05,0.701,1.4,1.4,0.35c4.901-7,16.976-15.05,31.677-15.05c28.351,0,41.125,23.45,41.125,46.726s-12.774,46.551-41.125,46.551
		C373.088,213.827,361.014,205.777,356.112,198.777z M354.712,146.276v41.826c6.302,13.476,19.951,20.476,32.376,20.476
		c23.102,0,36.576-17.15,36.576-41.301s-13.475-41.476-36.576-41.476C374.663,125.801,361.014,132.801,354.712,146.276z"/>
	<path fill="#252525" d="M511.862,160.977v50.926c0,0.875-0.523,1.4-1.398,1.4h-2.45c-0.875,0-1.401-0.525-1.401-1.4v-9.1
		c0-1.225-0.874-1.4-1.574-0.7c-6.826,6.65-22.926,11.725-33.775,11.725c-21.352,0-30.101-12.775-30.101-25.9
		c0-23.45,24.15-33.601,64.052-33.601c1.05,0,1.398-0.525,1.398-1.575c0-22.925-11.9-26.95-25.199-26.95
		c-10.5,0-24.325,5.425-29.575,8.575c-0.876,0.525-1.226,0.175-1.75-0.7l-1.226-2.1c-0.524-0.875-0.175-1.05,0.525-1.575
		c4.899-3.325,19.775-9.45,33.249-9.45C512.214,120.551,511.862,144.001,511.862,160.977z M506.088,194.927
		c0.699-0.7,0.524-1.05,0.524-1.575v-32.375c0-0.875-0.524-1.4-1.398-1.4c-23.626,0-58.803,3.85-58.803,28.351
		c0,13.125,9.977,20.65,24.852,20.65C478.787,208.577,493.139,205.952,506.088,194.927z"/>
	<path fill="#252525" d="M168.865,324.174l29.751,3.851c1.573,0.175,1.399,1.75,1.224,2.625
		c-3.85,25.375-27.125,42.876-54.775,42.876c-35.7,0-61.601-28.351-61.601-63.177c0-34.825,25.9-62.65,61.601-62.65
		c27.65,0,50.576,17.5,54.775,42.875c0.176,0.875,0.176,2.45-1.224,2.625l-29.751,3.851c-0.7,0.175-1.926,0-2.45-1.226
		c-2.8-7.175-7.7-16.8-22.925-16.8c-10.325,0-24.501,7.7-24.501,31.325c0,23.801,14.176,31.851,24.501,31.851
		c15.225,0,20.125-9.625,22.925-16.8C166.939,324.174,167.99,323.999,168.865,324.174z"/>
	<path fill="#252525" d="M216.637,241.223h30.976c0.876,0,1.4,0.525,1.4,1.4V371.6c0,0.875-0.524,1.4-1.4,1.4h-30.976
		c-0.874,0-1.399-0.525-1.399-1.4V242.623C215.237,241.748,215.763,241.223,216.637,241.223z"/>
	<path fill="#252525" d="M260.56,254.173c0-10.15,8.4-18.375,18.376-18.375c10.325,0,18.374,8.225,18.374,18.375
		s-8.049,18.375-18.374,18.375C268.96,272.548,260.56,264.323,260.56,254.173z M263.535,280.773h30.976
		c0.875,0,1.399,0.525,1.399,1.4V371.6c0,0.875-0.524,1.4-1.399,1.4h-30.976c-0.876,0-1.4-0.525-1.4-1.4v-89.426
		C262.135,281.299,262.659,280.773,263.535,280.773z"/>
	<path fill="#252525" d="M396.539,340.624c-1.05,13.301-14.35,32.901-43.4,32.901c-27.824,0-46.376-20.826-46.376-46.727
		s18.552-46.551,46.376-46.551c29.051,0,42.525,19.426,43.4,32.726c0.176,0.7-0.175,2.101-0.699,2.275l-28.701,3.675
		c-1.225,0.175-1.925-0.524-1.925-1.225c-1.399-6.65-5.075-11.375-11.375-11.375c-9.101,0-13.301,7.875-13.301,20.475
		c0,12.601,4.2,20.65,13.301,20.65c6.3,0,9.8-5.25,11.375-11.2c0.175-1.05,0.7-1.399,1.925-1.225l28.701,3.675
		C396.364,338.874,396.715,339.925,396.539,340.624z"/>
	<path fill="#252525" d="M470.039,372.125L446.238,340.8c-0.524-0.7-1.049-1.051-1.924-0.176l-5.775,6.476
		c-0.525,0.525-0.7,1.05-0.7,1.75v22.75c0,0.875-0.524,1.4-1.399,1.4h-30.803c-0.874,0-1.398-0.525-1.398-1.4V242.623
		c0-0.875,0.524-1.4,1.398-1.4h30.803c0.875,0,1.399,0.525,1.399,1.4v62.126c0,1.225,0.875,1.75,1.749,0.875l24.852-24.15
		c0.524-0.525,1.05-0.7,1.75-0.7h42.525c1.225,0,1.575,0.875,0.7,1.75l-38.851,37.101c-0.525,0.7-0.7,1.225-0.176,1.925
		l39.551,49.701c0.875,1.05,0.351,1.75-0.699,1.75h-37.451C471.088,373,470.389,372.65,470.039,372.125z"/>
	<g>
		<path fill="#252525" d="M40.758,68.95c0,0-37.149,0-38.926,0C0.479,68.95,0,68.308,0,67.11c0-0.391,0-1.989,0-2.323
			c0-1.109,0.385-1.838,1.832-1.837c1.627,0.001,38.926,0,38.926,0c15.479,0,22.381-7.317,22.381-23.724
			c0,0,0.012-36.652,0.012-37.355c0-1.094,0.609-1.864,1.802-1.864C65.479,0.006,66.602,0,67.307,0c1.148,0,1.832,0.812,1.832,1.833
			s0,37.393,0,37.393C69.139,58.949,59.59,68.95,40.758,68.95z"/>
	</g>
	<g>
		<path fill="#252525" d="M105.631,68.95c0,0,37.149,0,38.926,0c1.354,0,1.832-0.642,1.832-1.84c0-0.391,0-1.989,0-2.323
			c0-1.109-0.385-1.838-1.832-1.837c-1.627,0.001-38.926,0-38.926,0c-15.479,0-22.381-7.317-22.381-23.724
			c0,0-0.012-36.652-0.012-37.355c0-1.094-0.609-1.864-1.802-1.864C80.909,0.006,79.787,0,79.082,0
			c-1.148,0-1.832,0.812-1.832,1.833s0,37.393,0,37.393C77.25,58.95,86.799,68.95,105.631,68.95z"/>
	</g>
	<g>
		<path fill="#252525" d="M40.758,76.646c0,0-37.149,0-38.926,0C0.479,76.646,0,77.288,0,78.485c0,0.391,0,1.989,0,2.323
			c0,1.109,0.385,1.838,1.832,1.837c1.627-0.001,38.926,0,38.926,0c15.479,0,22.381,7.317,22.381,23.724
			c0,0,0.012,36.652,0.012,37.355c0,1.094,0.609,1.864,1.802,1.864c0.527,0,1.649,0.006,2.354,0.006
			c1.148,0,1.832-0.812,1.832-1.833s0-37.393,0-37.393C69.139,86.646,59.59,76.646,40.758,76.646z"/>
	</g>
	<path fill="#252525" d="M516.59,408.45c0,0-37.148,0-38.925,0c-1.354,0-1.832-0.643-1.832-1.84c0-0.391,0-1.989,0-2.324
		c0-1.109,0.385-1.838,1.832-1.836c1.626,0.001,38.925,0,38.925,0c15.479,0,22.382-7.317,22.382-23.725
		c0,0,0.012-36.652,0.012-37.355c0-1.094,0.609-1.863,1.802-1.863c0.527-0.001,1.649-0.007,2.354-0.007
		c1.147,0,1.832,0.812,1.832,1.833s0,37.393,0,37.393C544.972,398.449,535.423,408.45,516.59,408.45z"/>
</g>
</svg>
